<?xml version="1.0" encoding="UTF-8"?>
<svg id="Calque_1" data-name="Calque 1" xmlns="http://www.w3.org/2000/svg" version="1.1" viewBox="0 0 100 100">
  <defs>
    <style>
      .cls-1 {
        fill: #000;
        stroke-width: 0px;
      }

      .cls-2 {
        opacity: .5;
      }
    </style>
  </defs>
  <g class="cls-2">
    <path class="cls-1" d="M1.72,82.42h97.59s0-10.88,0-10.88H2.11c-.13,3.63-.26,7.25-.4,10.88Z"/>
    <g>
      <path class="cls-1" d="M88.2,31.75c.06.69.09,1.4.07,2.12,0,2.28-.05,5.72-.16,10.3-.18,5.17-.15,9.64-.05,14.03,3.7-.05,7.4-.09,11.09-.14-.34-10.71-4.51-19.61-10.95-26.31Z"/>
      <path class="cls-1" d="M47.08,22.15c1.43,2,1.25,2.12,2.51,0,.88-1.65,2.13-3.14,3.6-4.42-3.16.01-6.35.31-9.5.9,1.4,1.06,2.59,2.26,3.39,3.51Z"/>
      <path class="cls-1" d="M64.74,26.75c-4.35,0-7.29,1.94-8.83,5.83-2.08,2.84-1.87,25.83-.05,24.98,5.81.07,14.78-.1,20.6-.21,1.51-3.1.81-8,1.07-13.59-.12-10.61-1.84-16.77-12.79-17.01Z"/>
      <path class="cls-1" d="M13.38,55.26c-.05-6.21-.28-12.92.36-19.05-7.33,8.87-10.09,18.52-11.14,23.02,3.61-.04,7.22-.09,10.83-.13.04-1.46.05-2.81-.05-3.84Z"/>
      <path class="cls-1" d="M22.85,48.25c0,5.99.45,8.99,1.34,8.99,5.45.18,12.86.43,18.3.21,1.03,0,1.55-4.03,1.55-12.09,0-11.45-3.16-17.17-9.47-17.17-11.11.51-11.53,9.2-11.72,20.06Z"/>
    </g>
  </g>
</svg>